<svg xmlns="http://www.w3.org/2000/svg" xmlns:xlink="http://www.w3.org/1999/xlink" width="400" height="220" viewBox="0 0 400 220">
  <defs>
    <style>
      .cls-1 {
        fill: none;
      }

      .cls-2 {
        clip-path: url(#clip-path);
      }

      .cls-3 {
        fill: #f4f4f4;
      }

      .cls-4 {
        fill: #fff;
      }

      .cls-5 {
        clip-path: url(#clip-path-2);
      }

      .cls-6 {
        fill: #7f99ef;
      }

      .cls-7 {
        fill: #152b72;
      }

      .cls-8 {
        fill: #2244b7;
      }

      .cls-9 {
        fill: #4066e7;
      }

      .cls-10 {
        mix-blend-mode: multiply;
        isolation: isolate;
      }

      .cls-11 {
        clip-path: url(#clip-path-4);
      }

      .cls-12 {
        fill: #ebebeb;
      }

      .cls-13 {
        fill: #2f2e41;
      }

      .cls-14 {
        fill: #a0616a;
      }

      .cls-15 {
        fill: #ffb6b6;
      }

      .cls-16 {
        fill: #11225b;
      }

      .cls-17 {
        fill: #2b56e5;
      }
    </style>
    <clipPath id="clip-path">
      <rect id="Rectángulo_9826" data-name="Rectángulo 9826" class="cls-1" width="340.939" height="171.384"/>
    </clipPath>
    <clipPath id="clip-path-2">
      <rect id="Rectángulo_12468" data-name="Rectángulo 12468" class="cls-1" width="340.946" height="187.114"/>
    </clipPath>
    <clipPath id="clip-path-4">
      <rect id="Rectángulo_12466" data-name="Rectángulo 12466" class="cls-1" width="15.865" height="23.655" transform="translate(46.1 144.977)"/>
    </clipPath>
  </defs>
  <g id="Grupo_47655" data-name="Grupo 47655" transform="translate(-478 -331)">
    <g id="Grupo_47642" data-name="Grupo 47642" transform="translate(-133 2)">
      <g id="Grupo_47641" data-name="Grupo 47641" transform="translate(6 -61.698)">
        <g id="Grupo_47640" data-name="Grupo 47640" transform="translate(631.808 391.236)">
          <g id="Grupo_47639" data-name="Grupo 47639" transform="translate(0 29.484)">
            <g id="Grupo_47638" data-name="Grupo 47638" class="cls-2">
              <path id="Trazado_20269" data-name="Trazado 20269" class="cls-3" d="M307.052,169.593c-.752.618-1.5,1.208-2.274,1.79H114.868q-2.122-.873-4.225-1.79A223.613,223.613,0,0,1,55.256,135.11c-11.074-9.382-21.261-19.068-28.647-28.145C16.305,94.3,6.816,80.493,2.4,64.764s-3.088-33.758,6.75-46.8A41.9,41.9,0,0,1,20.209,7.838c.707-.448,1.423-.877,2.157-1.28C34.165-.067,49.052-1.679,62.337,1.75,81.36,6.665,97.17,20.388,108.449,36.484s18.6,34.564,25.818,52.835c7.323-32.613,29.5-61.823,59.451-76.675s67.15-14.673,96.459,1.414A96.939,96.939,0,0,1,314.84,33.485c.707.761,1.4,1.54,2.077,2.328,14.3,16.552,23.24,37.751,23.974,59.612.94,28.163-12.112,56.452-33.839,74.168" transform="translate(0 0)"/>
              <path id="Trazado_20270" data-name="Trazado 20270" class="cls-4" d="M124.823,172.117h-2.686c-.036-.6-.081-1.191-.134-1.79a200.744,200.744,0,0,0-5.873-34.681,213.8,213.8,0,0,0-34.3-72.029A204.652,204.652,0,0,0,23.2,9.493a1.273,1.273,0,0,1-.627-.922,1.339,1.339,0,0,1,1.978-1.4,1.977,1.977,0,0,1,.179.116A202.741,202.741,0,0,1,60.645,35.15a215.656,215.656,0,0,1,46.291,66.362,209.11,209.11,0,0,1,17.743,68.815c.054.6.1,1.2.143,1.79" transform="translate(-2.363 -0.734)"/>
              <path id="Trazado_20271" data-name="Trazado 20271" class="cls-4" d="M331.477,39.7a.169.169,0,0,1-.063.018c-1.961.358-3.93.734-5.882,1.137a265.7,265.7,0,0,0-46.846,14.225,276.432,276.432,0,0,0-43.418,22.38,280.912,280.912,0,0,0-38.9,29.614,275.3,275.3,0,0,0-33.114,35.916,266.314,266.314,0,0,0-20.241,30.491c-.34.591-.671,1.191-1,1.79h-3.071c.322-.6.654-1.2.994-1.79a268.444,268.444,0,0,1,25.048-37,278.29,278.29,0,0,1,34.3-35.585A284.548,284.548,0,0,1,239.011,72a279.1,279.1,0,0,1,44.331-21.628,266,266,0,0,1,46.059-13l1.307-.242c1.674-.3,2.39,2.22.77,2.569" transform="translate(-14.56 -3.888)"/>
              <path id="Trazado_20272" data-name="Trazado 20272" class="cls-4" d="M278.426,144.2a177.463,177.463,0,0,0-56.26,1.269,181.133,181.133,0,0,0-52.972,18.52,174.793,174.793,0,0,0-26.435,17.466c-1.35,1.078.561,2.968,1.9,1.9a173.525,173.525,0,0,1,48.152-27.068,178.738,178.738,0,0,1,53.77-10.908,171.093,171.093,0,0,1,31.133,1.413,1.392,1.392,0,0,0,1.652-.938,1.351,1.351,0,0,0-.938-1.652" transform="translate(-14.911 -14.937)"/>
            </g>
          </g>
        </g>
        <rect id="Rectángulo_9827" data-name="Rectángulo 9827" class="cls-1" width="400" height="220" transform="translate(605 390.698)"/>
      </g>
    </g>
    <g id="Grupo_54202" data-name="Grupo 54202" transform="translate(504.527 358.291)">
      <g id="Grupo_54199" data-name="Grupo 54199" class="cls-5">
        <g id="Grupo_54198" data-name="Grupo 54198">
          <g id="Grupo_54197" data-name="Grupo 54197" class="cls-5">
            <path id="Trazado_20356" data-name="Trazado 20356" class="cls-3" d="M307.06,173.073c-.752.618-1.5,1.208-2.274,1.79H114.876q-2.123-.873-4.225-1.79A223.631,223.631,0,0,1,55.264,138.59C44.19,129.208,34,119.522,26.617,110.445,16.313,97.78,6.824,83.973,2.408,68.244s-3.088-33.758,6.75-46.8A41.911,41.911,0,0,1,20.217,11.318c.707-.448,1.423-.877,2.157-1.28C34.173,3.413,49.06,1.8,62.345,5.23c19.023,4.915,34.833,18.638,46.112,34.734s18.6,34.564,25.818,52.835c7.323-32.613,29.5-61.823,59.451-76.675s67.15-14.673,96.459,1.414a96.946,96.946,0,0,1,24.663,19.427c.707.761,1.4,1.54,2.077,2.328,14.3,16.552,23.24,37.751,23.974,59.612.94,28.163-12.112,56.452-33.839,74.168"/>
            <path id="Trazado_20357" data-name="Trazado 20357" class="cls-4" d="M122.468,174.863h-2.686c-.036-.6-.081-1.191-.134-1.79a200.694,200.694,0,0,0-5.873-34.681,213.81,213.81,0,0,0-34.3-72.029,204.666,204.666,0,0,0-58.63-54.124,1.273,1.273,0,0,1-.627-.922,1.339,1.339,0,0,1,1.978-1.4,1.886,1.886,0,0,1,.179.116A202.721,202.721,0,0,1,58.29,37.9a215.655,215.655,0,0,1,46.291,66.362,209.124,209.124,0,0,1,17.743,68.815c.054.6.1,1.2.143,1.79"/>
            <path id="Trazado_20358" data-name="Trazado 20358" class="cls-4" d="M316.925,39.292a.175.175,0,0,1-.063.018c-1.961.358-3.93.734-5.882,1.137a265.725,265.725,0,0,0-46.846,14.225,276.37,276.37,0,0,0-43.418,22.38,280.868,280.868,0,0,0-38.9,29.614A275.315,275.315,0,0,0,148.7,142.582a266.3,266.3,0,0,0-20.241,30.491c-.34.591-.671,1.191-1,1.79H124.39c.322-.6.654-1.2.994-1.79a268.484,268.484,0,0,1,25.048-37,278.316,278.316,0,0,1,34.3-35.585,284.582,284.582,0,0,1,39.727-28.9A279.1,279.1,0,0,1,268.79,49.964a266.086,266.086,0,0,1,46.059-13l1.307-.242c1.674-.3,2.39,2.22.77,2.569"/>
            <path id="Trazado_20359" data-name="Trazado 20359" class="cls-4" d="M263.523,132.743a177.452,177.452,0,0,0-56.26,1.269,181.122,181.122,0,0,0-52.972,18.52A174.86,174.86,0,0,0,127.856,170c-1.35,1.078.561,2.968,1.9,1.9a173.525,173.525,0,0,1,48.152-27.068,178.722,178.722,0,0,1,53.77-10.908,171.116,171.116,0,0,1,31.133,1.413,1.392,1.392,0,0,0,1.652-.938,1.351,1.351,0,0,0-.938-1.652"/>
            <path id="Trazado_20360" data-name="Trazado 20360" class="cls-6" d="M54.6,143.36c-2.343-4.158-2.807-11.335-2.491-16.216.084-1.3.2-2.463.307-3.588.327-3.355.911-6.079.109-9.555l.1-.709a31.687,31.687,0,0,1,.458,10.329c-.109,1.12-.222,2.278-.305,3.566-.309,4.79.136,11.814,2.407,15.845Z"/>
            <path id="Trazado_20361" data-name="Trazado 20361" class="cls-6" d="M53.155,121.683c-.417-6.429-5.385-12.315-5.594-13.067-4.467,4.426-4.008,11.4,5.594,13.067"/>
            <path id="Trazado_20362" data-name="Trazado 20362" class="cls-6" d="M63.3,112.457c-8.725,2.839-11.271,16.907-10.645,19.036,1.628,2.045,12.232-2.171,12.148-9.6s-1.5-9.435-1.5-9.435"/>
            <path id="Trazado_20363" data-name="Trazado 20363" class="cls-7" d="M52.2,100.226a22.275,22.275,0,0,1-.5,6.93l-.626-.292c-.417.668,1.044,6.137,1.461,7.138a29.857,29.857,0,0,0,.793-9.727c-.336-3.172-1.128-4.049-1.128-4.049"/>
            <path id="Trazado_20364" data-name="Trazado 20364" class="cls-7" d="M57.663,104.776c-.626,1.127-3.674,5.218-3.882,7.389a44.209,44.209,0,0,0-.376,5.218c.125.167,3.966-1.628,3.966-3.715s.709-2.421.96-4.133a14.873,14.873,0,0,0-.668-4.759"/>
            <path id="Trazado_20365" data-name="Trazado 20365" class="cls-8" d="M54.171,132.092h0a1.963,1.963,0,0,1-1.587-.547l-.015-.028c-.335-1.139.195-5.231,1.818-9.306,1.45-3.639,4.168-8.3,8.881-9.833l.058-.019.036.05c.059.083,1.435,2.11,1.518,9.482a8.858,8.858,0,0,1-2.808,6.34c-2.48,2.508-5.924,3.861-7.906,3.861m-1.442-.638a1.833,1.833,0,0,0,1.441.471c1.948,0,5.339-1.335,7.787-3.811a8.807,8.807,0,0,0,2.76-6.221c-.075-6.68-1.246-8.977-1.456-9.336-4.613,1.534-7.285,6.125-8.715,9.715-1.58,3.964-2.129,8.068-1.818,9.182"/>
            <path id="Trazado_20366" data-name="Trazado 20366" class="cls-8" d="M52.7,131.56l-.1-.134c4.058-3.007,9.273-9.783,10.612-18.981l.165.024a31.76,31.76,0,0,1-4.05,11.474A26.175,26.175,0,0,1,52.7,131.56"/>
            <path id="Trazado_20367" data-name="Trazado 20367" class="cls-8" d="M60.982,120.377a15.8,15.8,0,0,1,1.261-7.6l.149.075a15.614,15.614,0,0,0-1.244,7.51Z"/>
            <path id="Trazado_20368" data-name="Trazado 20368" class="cls-8" d="M59.961,122.557c-.054-.236-1.336-5.669.081-8.4l.179-.076c-1.389,2.676-.11,8.381-.1,8.438Z"/>
            <path id="Trazado_20369" data-name="Trazado 20369" class="cls-8" d="M58.611,124.873c-.023-.046-2.276-4.665-1.048-8.267l.158.054c-1.206,3.537,1.017,8.094,1.039,8.139Z"/>
            <path id="Trazado_20370" data-name="Trazado 20370" class="cls-8" d="M57.462,126.56c-.087-.19-2.114-4.687-1.676-7.333l.165.027c-.429,2.6,1.642,7.19,1.663,7.236Z"/>
            <path id="Trazado_20371" data-name="Trazado 20371" class="cls-8" d="M56.287,128.065a8.012,8.012,0,0,1-1.848-5.953l.166.02a7.829,7.829,0,0,0,1.8,5.819Z"/>
            <path id="Trazado_20372" data-name="Trazado 20372" class="cls-8" d="M55.324,129.1a8.567,8.567,0,0,1-1.75-4.579l.167-.008A8.39,8.39,0,0,0,55.454,129Z"/>
            <path id="Trazado_20373" data-name="Trazado 20373" class="cls-8" d="M54.422,129.954c-.06-.088-1.477-2.168-1.392-3.455l.167.011c-.081,1.23,1.349,3.328,1.363,3.349Z"/>
            <path id="Trazado_20374" data-name="Trazado 20374" class="cls-8" d="M53.611,130.711a6.528,6.528,0,0,1-1.016-1.948l.159-.049a6.489,6.489,0,0,0,.987,1.893Z"/>
            <path id="Trazado_20375" data-name="Trazado 20375" class="cls-8" d="M56.88,127.441l-.02-.166a12.039,12.039,0,0,0,7.831-4.973l.138.093a12.212,12.212,0,0,1-7.949,5.046"/>
            <path id="Trazado_20376" data-name="Trazado 20376" class="cls-8" d="M53.245,121.783l-.1-.018c-4.361-.758-7.244-2.711-8.119-5.5-.788-2.509.14-5.391,2.481-7.711l.1-.1.038.137a7.857,7.857,0,0,0,.691,1.134c1.485,2.235,4.574,6.886,4.9,11.953Zm-5.709-13.019c-2.231,2.259-3.11,5.037-2.351,7.454.848,2.7,3.646,4.6,7.884,5.364-.362-4.981-3.4-9.558-4.869-11.765a11.936,11.936,0,0,1-.664-1.053"/>
            <path id="Trazado_20377" data-name="Trazado 20377" class="cls-8" d="M53.109,121.752c-6.757-4.691-6.448-9.248-5.628-13.152l.163.034c-.809,3.851-1.113,8.348,5.56,12.981Z"/>
            <path id="Trazado_20378" data-name="Trazado 20378" class="cls-8" d="M47.529,114.668l-.159-.05a16.072,16.072,0,0,0,.706-5.033l.166-.015a16.254,16.254,0,0,1-.713,5.1"/>
            <path id="Trazado_20379" data-name="Trazado 20379" class="cls-8" d="M47.732,115.334l-.148-.077a10.343,10.343,0,0,0,1.146-4.712l.166-.018a10.279,10.279,0,0,1-1.164,4.806"/>
            <path id="Trazado_20380" data-name="Trazado 20380" class="cls-8" d="M47.952,115.84l-.143-.086c.017-.028,1.694-2.831,1.492-4.287l.165-.023c.211,1.515-1.443,4.279-1.514,4.4"/>
            <path id="Trazado_20381" data-name="Trazado 20381" class="cls-8" d="M48.275,116.635l-.12-.116a6.654,6.654,0,0,0,1.674-4.186H50a6.828,6.828,0,0,1-1.721,4.3"/>
            <path id="Trazado_20382" data-name="Trazado 20382" class="cls-8" d="M48.872,117.624l-.117-.119a6.211,6.211,0,0,0,1.714-4.017h.167a6.4,6.4,0,0,1-1.765,4.137"/>
            <path id="Trazado_20383" data-name="Trazado 20383" class="cls-8" d="M49.195,118.065l-.124-.112c.02-.022,1.964-2.2,1.843-3.576l.166-.015c.127,1.453-1.8,3.611-1.886,3.7"/>
            <path id="Trazado_20384" data-name="Trazado 20384" class="cls-8" d="M49.439,118.422l-.056-.157a3.4,3.4,0,0,0,2-2.907l.166.016a3.566,3.566,0,0,1-2.115,3.049"/>
            <path id="Trazado_20385" data-name="Trazado 20385" class="cls-8" d="M49.842,118.876l-.082-.146c.021-.012,2.11-1.172,2.044-2.371l.167-.009c.072,1.3-2.04,2.477-2.13,2.527"/>
            <path id="Trazado_20386" data-name="Trazado 20386" class="cls-8" d="M50.269,119.384l-.044-.161c.018,0,1.8-.5,2-1.742l.165.026c-.221,1.346-2.045,1.856-2.121,1.877"/>
            <path id="Trazado_20387" data-name="Trazado 20387" class="cls-8" d="M50.768,119.83l-.042-.162c.016,0,1.646-.438,1.826-1.106l.161.043c-.2.762-1.874,1.206-1.945,1.224"/>
            <path id="Trazado_20388" data-name="Trazado 20388" class="cls-8" d="M51.259,120.319l-.014-.166c.014,0,1.416-.128,1.5-.777l.165.022c-.1.781-1.592.915-1.655.921"/>
            <path id="Trazado_20389" data-name="Trazado 20389" class="cls-8" d="M52,120.932l0-.167c.224-.006.834-.083.964-.353l.15.072c-.2.417-1.072.446-1.109.447"/>
            <path id="Trazado_20390" data-name="Trazado 20390" class="cls-8" d="M47.492,114.92a3.928,3.928,0,0,1-2.708-1.06l.128-.107a3.829,3.829,0,0,0,2.58,1Z"/>
            <path id="Trazado_20391" data-name="Trazado 20391" class="cls-8" d="M46.917,117.492a2.573,2.573,0,0,1-1.621-.474l.1-.131c1.065.852,3.1.188,3.122.181l.053.158a5.828,5.828,0,0,1-1.658.265"/>
            <path id="Trazado_20392" data-name="Trazado 20392" class="cls-6" d="M53.169,137.3c.445-3.34-2.227-6.791-3.674-9.963a10.411,10.411,0,0,0-4.007-4.565,48.392,48.392,0,0,0,.056,9.407c.557,3.674,5.51,6.679,7.626,5.121"/>
            <path id="Trazado_20393" data-name="Trazado 20393" class="cls-6" d="M54.56,141.916c-.723-4.564,3.228-8.85,3.284-9.017,1.058,1.225,1.225,4.9-.612,6.178a9.17,9.17,0,0,0-2.672,2.839"/>
            <path id="Trazado_20394" data-name="Trazado 20394" class="cls-9" d="M55.284,172.863h-2.5a6.679,6.679,0,0,1-6.679-6.679V144.977H61.961v21.207a6.679,6.679,0,0,1-6.679,6.679"/>
            <g id="Grupo_54196" data-name="Grupo 54196" class="cls-10">
              <g id="Grupo_54195" data-name="Grupo 54195">
                <g id="Grupo_54194" data-name="Grupo 54194" class="cls-11">
                  <path id="Trazado_20395" data-name="Trazado 20395" class="cls-12" d="M46.1,146.624l15.4,22.008a6.653,6.653,0,0,0,.465-2.447V144.977H46.56l-.457.111Z"/>
                </g>
              </g>
            </g>
            <path id="Trazado_20396" data-name="Trazado 20396" class="cls-8" d="M64.384,146.314H43.762a3.507,3.507,0,0,1,3.5-3.511H60.878a3.507,3.507,0,0,1,3.507,3.507"/>
            <path id="Trazado_20397" data-name="Trazado 20397" class="cls-13" d="M215.218,150.465v.246a1.011,1.011,0,0,1,0-.246"/>
            <path id="Trazado_20398" data-name="Trazado 20398" class="cls-13" d="M222.79,107.912a4.279,4.279,0,0,1,.6-.116q-.347.056-.6.116"/>
            <path id="Trazado_20399" data-name="Trazado 20399" class="cls-13" d="M222.615,107.956c.053-.015.112-.03.175-.045-.058.016-.115.027-.175.045"/>
            <path id="Trazado_20400" data-name="Trazado 20400" class="cls-14" d="M204.173,148.232l1.354-11.247-6.418-3.841-1.785,19.077"/>
            <path id="Trazado_20401" data-name="Trazado 20401" class="cls-13" d="M216.559,24.405c-2.062-7.519,14.572-13.967,18.94-7.912.607-.861,2.852-1.384,3.881-1.119a8.033,8.033,0,0,1,2.742,1.563,10.822,10.822,0,0,1,3.079,3.1,3.684,3.684,0,0,1-.138,4.13c-.765.882-3.026,1.453-4.177,1.685-.8.164-1.479.3-2.06.391a3.937,3.937,0,0,1-.687-2.6,3.2,3.2,0,0,0-1.394,2.345c-.016.2,6.491,24.137,6.491,24.137a14.242,14.242,0,0,1-2.456,1.1,30.879,30.879,0,0,1-3.829-8.345,26.763,26.763,0,0,0,.074,5.941,32.439,32.439,0,0,0,.56,3.291c-7.732,1.669-19.362,1.12-24.422-5.979l0-.088a1.208,1.208,0,0,0-2.333-.421c-.123.313-.236.584-.336.8-1.474-5.271.433-11.371,6.068-22.019"/>
            <path id="Trazado_20402" data-name="Trazado 20402" class="cls-13" d="M266.742,175.1H238.4a2.254,2.254,0,0,1-.607-2.776,3.41,3.41,0,0,0-.743-3.4,4.82,4.82,0,0,1-.971-4.443c.751-2.623-2.192-10.025-2.192-10.025s-1.586,9.559-3.53,20.642H203.4a5.012,5.012,0,0,1,0-5.073c1.571-2.664,0-3.175,0-3.175s-1.571-2.98,0-5.144,0-11,0-11c.059.391.507-.319,1.2-1.809,1.049-2.266,2.652-6.341,4.271-11.071,1.158-3.377,2.325-7.092,3.3-10.724h0q.384-1.431.727-2.836c.448-1.838.831-3.623,1.122-5.3.633-3.61.841-6.712.356-8.729-.4-1.679-1.284-2.6-2.8-2.446.815-.135,2.008-.263,3.478-.384l.824-.066c10.968-.829,34.5-1.305,34.5-1.305l7.207,12.907,9.128,16.349s-.249,21.933.033,39.807"/>
            <path id="Trazado_20403" data-name="Trazado 20403" class="cls-6" d="M236.49,50.256l-16.605-3.522-3.3,6.636-11.1,6.428s7.157,29.263,7.116,33.379c-.1,10.449-16.823,33.872-4.194,32.07s15.193-9.35,19.247-8.156c3.656,1.076,8.121,5.864,11.11,2.44s4.041.53,5.931.666c.9.065.357-4.324,2.617.137s14.243-1.544,10.181-5.605c-6.764-6.765-8.138-56.627-8.138-56.627l-7.53-2.317Z"/>
            <path id="Trazado_20404" data-name="Trazado 20404" class="cls-6" d="M225.1,84.7c-.04-.438-.6-.637-1.373-.912a8.463,8.463,0,0,1-2.2-1.039c-1.714-1.238-1.04-2.534-.107-4.324.183-.348.372-.71.55-1.086.528-1.116-.313-5.716-2.5-13.677-.675-2.45-.673-4.181-1.139-5.329s-1.395-1.715-3.931-1.833a11.591,11.591,0,0,0-8.346,2.967c-.061.054-.125.113-.187.17q-.174.164-.341.334a11.586,11.586,0,0,0-3.367,7.965l-.012.509-.523,24.322-1.47,21.343-2.027,29.4,1.5.074,5.99.3.727.036,1.724-7.231,2.074-8.7.763-3.2,2.365-9.917,1.1-4.633.675-2.83.275-1.155,1.34-5.617c.031-.118,3.114-12.281,6.668-14.315,1.326-.758,1.8-1.2,1.766-1.622"/>
            <path id="Trazado_20405" data-name="Trazado 20405" class="cls-14" d="M265.258,152.916l-4.224-13.249L267,135.159l3.925,14.4"/>
            <path id="Trazado_20406" data-name="Trazado 20406" class="cls-6" d="M267.9,127.632s-4.655-16.379-3.235-18.152-2.774-2.119-.967-5.421-.687-3.855-.687-3.855l-1.353-7.592-2.42-18.649-.073-.554-.7-5.426a11.621,11.621,0,0,0-4.581-7.853c-.064-.049-.129-.1-.2-.143q-.445-.321-.913-.6a11.6,11.6,0,0,0-7.712-1.465c-5.018.782-3.456,2.653-4.27,7.666-1.322,8.151-1.666,12.814-1.021,13.867.217.355.446.694.663,1.02,1.121,1.682,1.931,2.9.358,4.313a8.536,8.536,0,0,1-2.07,1.267c-.739.358-1.274.615-1.267,1.055s.531.81,1.93,1.421c1.7.741,3.515,3.546,5.006,6.411a70.565,70.565,0,0,1,3.161,7.107L260.362,138.1l2.09,5.878.721-.114,5.922-.939,1.484-.235Z"/>
            <path id="Trazado_20407" data-name="Trazado 20407" class="cls-14" d="M229.485,19.39a13.548,13.548,0,1,1-13.547,13.547A13.547,13.547,0,0,1,229.485,19.39"/>
            <path id="Trazado_20408" data-name="Trazado 20408" class="cls-13" d="M209.165,25.461c-2.062-7.519,14.572-13.967,18.94-7.912.607-.861,2.852-1.384,3.881-1.119a8.033,8.033,0,0,1,2.742,1.563,10.822,10.822,0,0,1,3.079,3.1,3.684,3.684,0,0,1-.138,4.13c-.765.882-3.026,1.453-4.177,1.685-.8.164-1.479.3-2.06.391a3.938,3.938,0,0,1-.687-2.6,3.194,3.194,0,0,0-1.394,2.345c-.016.2,6.491,24.137,6.491,24.137a14.242,14.242,0,0,1-2.456,1.1,30.879,30.879,0,0,1-3.829-8.345,26.762,26.762,0,0,0,.074,5.941,32.443,32.443,0,0,0,.56,3.291c-7.732,1.669-19.362,1.12-24.422-5.979l0-.088a1.208,1.208,0,0,0-2.333-.421c-.123.313-.236.584-.336.8-1.474-5.271.433-11.371,6.068-22.019"/>
            <path id="Trazado_20409" data-name="Trazado 20409" class="cls-14" d="M205.426,149.029c1.893,1.78,2,5.853,1.6,8.576a22.911,22.911,0,0,1-2.991,7.665,9.446,9.446,0,0,1-1.872,2.584,3.048,3.048,0,0,1-2.838.8,2.794,2.794,0,0,1-1.577-1.516,8.562,8.562,0,0,1-.534-3.652l-.012-10.068a4.536,4.536,0,0,1,.664-2.9,3.609,3.609,0,0,1,3.32-.915c1.054.118,1.979-1.687,2.987-1.372"/>
            <path id="Trazado_20410" data-name="Trazado 20410" class="cls-14" d="M206.453,156.412l1.156.583a3.582,3.582,0,0,0,.873.347,1.905,1.905,0,0,0,1.45-.311.618.618,0,0,0,.183-.177.555.555,0,0,0,.064-.262,2.176,2.176,0,0,0-.618-1.369c-.763-.969-2.156-3.208-2.918-4.178"/>
            <path id="Trazado_20411" data-name="Trazado 20411" class="cls-14" d="M263.3,150.666c-1.194,2.308.059,6.184,1.339,8.621a22.925,22.925,0,0,0,5.365,6.237,9.5,9.5,0,0,0,2.624,1.816,3.048,3.048,0,0,0,2.942-.188,2.8,2.8,0,0,0,.985-1.954,8.569,8.569,0,0,0-.709-3.623q-1.665-4.75-3.331-9.5a4.54,4.54,0,0,0-1.588-2.514,3.611,3.611,0,0,0-3.436.24c-.954.461-2.427-.935-3.273-.3"/>
            <path id="Trazado_20412" data-name="Trazado 20412" class="cls-14" d="M264.784,157.971l-.9.934a3.588,3.588,0,0,1-.709.617,1.907,1.907,0,0,1-1.47.188.582.582,0,0,1-.231-.107.559.559,0,0,1-.149-.226,2.179,2.179,0,0,1,.13-1.5c.4-1.167.968-3.742,1.365-4.91"/>
            <path id="Trazado_20413" data-name="Trazado 20413" class="cls-13" d="M191.279,153.013s-.782,14.069-1.142,22.092h-26.93c-.554-7.3-.74-12.666-.74-12.666L160.993,175.1H133.772l-1.687-23.459,8.155-20.215s44.195-3.065,48.295.823,2.744,20.759,2.744,20.759"/>
            <path id="Trazado_20414" data-name="Trazado 20414" class="cls-15" d="M167.465,5.246a14.71,14.71,0,1,1-14.71,14.71,14.711,14.711,0,0,1,14.71-14.71"/>
            <path id="Trazado_20415" data-name="Trazado 20415" class="cls-13" d="M184.611,15.176c-1.511.689-2.49,5.679-3.677,4.519s-1.109-2.67-2.71-3.1a5.432,5.432,0,0,0-3.864.675c-.21.111-.414.231-.613.35-.132-.087-.262-.17-.4-.246a4.672,4.672,0,0,0-3.44-.387,4.583,4.583,0,0,1,2.266,1.67c-.394.265-.794.53-1.2.765-3.416,1.971-8.278-2.316-11.874-3.926,2.253,4.227,1.144,5.977-.812,10.349l-.068.249c.111-1.1-3.279-1.912-3.082-.37a18.542,18.542,0,0,0,1.618,4.5c-3.781-4.372-6.365-9.722-5.82-15.24a8.059,8.059,0,0,1,.681-3.389,2.648,2.648,0,0,1,2.951-1.322,9.752,9.752,0,0,1,14.682-8.925,37.182,37.182,0,0,1,3.884,3.011,8.12,8.12,0,0,0,4.427,1.975c1.041.05,2.173-.2,3.067.335,1.036.625,1.214,1.935,1.369,3.2a4.666,4.666,0,0,0-2.515,1.047,4.571,4.571,0,0,1,2.75.59.251.251,0,0,1,.045.026c.548,2.082.491,2.544,2.341,3.651"/>
            <path id="Trazado_20416" data-name="Trazado 20416" class="cls-16" d="M133.838,138.547c12.527-14.663,8.3-33.313,3.324-52.139l.946-27.812a8.507,8.507,0,0,1,3.849-6.833l12.789-8.354,4.977-7.2,13.72,1.372,7.609,8.046,8.421,6.43a13.953,13.953,0,0,1,5.157,14.1l-8.059,36.447s3.37,18.894,1.314,20.98-7.357,0-3.154,2.344c5.043,2.811,9.629,2.292,7.077,4.845s.678,6.1.678,6.1Z"/>
            <path id="Trazado_20417" data-name="Trazado 20417" class="cls-15" d="M138.9,148.534c2.37,2.229,2.5,7.328,2,10.737a28.666,28.666,0,0,1-3.745,9.6,11.834,11.834,0,0,1-2.344,3.235,3.814,3.814,0,0,1-3.552,1,3.5,3.5,0,0,1-1.976-1.9,10.739,10.739,0,0,1-.668-4.573q-.007-6.3-.015-12.606a5.685,5.685,0,0,1,.832-3.628c.981-1.216,2.693-1.309,4.156-1.145,1.32.148,2.478-2.113,3.74-1.718"/>
            <path id="Trazado_20418" data-name="Trazado 20418" class="cls-15" d="M140.188,157.779l1.447.73a4.478,4.478,0,0,0,1.094.435,2.385,2.385,0,0,0,1.814-.389.75.75,0,0,0,.229-.223.7.7,0,0,0,.082-.328,2.727,2.727,0,0,0-.775-1.713c-.955-1.214-2.7-4.018-3.653-5.232"/>
            <path id="Trazado_20419" data-name="Trazado 20419" class="cls-15" d="M184.662,148.534c-2.37,2.229-2.5,7.328-2,10.737a28.666,28.666,0,0,0,3.745,9.6,11.834,11.834,0,0,0,2.344,3.235,3.814,3.814,0,0,0,3.552,1,3.5,3.5,0,0,0,1.976-1.9,10.739,10.739,0,0,0,.668-4.573q.007-6.3.015-12.606a5.685,5.685,0,0,0-.832-3.628c-.981-1.216-2.693-1.309-4.156-1.145-1.32.148-2.478-2.113-3.74-1.718"/>
            <path id="Trazado_20420" data-name="Trazado 20420" class="cls-15" d="M183.377,157.779l-1.447.73a4.477,4.477,0,0,1-1.094.435,2.385,2.385,0,0,1-1.814-.389.75.75,0,0,1-.229-.223.7.7,0,0,1-.082-.328,2.727,2.727,0,0,1,.775-1.713c.955-1.214,2.7-4.018,3.653-5.232"/>
            <path id="Trazado_20421" data-name="Trazado 20421" class="cls-16" d="M155.058,46.091s-23.719,7.72-24.285,13.368-.378,9.106-2.881,31.709l.132,60.886s15.9,3.4,14.271-.236-1.062-5.353-1.062-5.353,3.41-1.345,2.556-5.619,3.427-25.456,3.427-25.456l2.7-37.988Z"/>
            <path id="Trazado_20422" data-name="Trazado 20422" class="cls-16" d="M175.91,44.51s23.164,9.254,23.359,14.927-.218,9.111.8,31.829l-4.111,60.747s-16.091,2.358-14.225-1.168,1.409-5.272,1.409-5.272-3.314-1.565-2.183-5.775-1.755-25.625-1.755-25.625l-.213-38.083Z"/>
            <path id="Trazado_20423" data-name="Trazado 20423" class="cls-13" d="M100.879,16.493c-.252.587-8.014.524-8.369,1.046-2.741,4.033,7.139,21.192,4.4,25.23l-.381.455A18.053,18.053,0,0,0,99.1,41.776c.073-1.653.146-3.312.225-4.964a13.669,13.669,0,0,1,1.967,3.457,22.331,22.331,0,0,1,3.9-2.924,17.146,17.146,0,0,1,3.79-3.12Z"/>
            <path id="Trazado_20424" data-name="Trazado 20424" class="cls-15" d="M60.789,78.815c4.27,4.557,22.781,23.241,30.444,15.941,6.442-6.136,15.737-29.918,17.975-38.131a6.457,6.457,0,0,0-5.086-8.043,5.863,5.863,0,0,0-2.625.077,6.509,6.509,0,0,0-4.721,4.689L84.98,84.082,64.705,72.572"/>
            <path id="Trazado_20425" data-name="Trazado 20425" class="cls-15" d="M84.367,96.043l3.722,16.824,27.219,2.462,2.5-14.649Z"/>
            <path id="Trazado_20426" data-name="Trazado 20426" class="cls-13" d="M125.943,139.187c-.012.241-.027.48-.045.721-.261,3.486-.558,7.507-.882,11.913-.509,6.992-1.08,14.953-1.654,23.283H66.271l11.072-33.28s4.471-2.462,2.195-6.6,2.2-.84,2.245-6.745,4.054-12.188,4.054-12.188l.659-8.941.375.008,29.711.494.542.01.912,7.676a33.934,33.934,0,0,1,7.907,23.646"/>
            <path id="Trazado_20427" data-name="Trazado 20427" class="cls-6" d="M101.355,41.392l13.548-.7,6.293,9.943s11.84,1.98,11.019,15.932-14.406,26.194-14.406,26.194l.581-1.991-1.009,2.882.13,1.618,1.376,1.714.141,1.772-1.219,2.8A1.6,1.6,0,0,1,116.29,104l-19.576-1.961c-.445-1.227-.8-2.693-2.589-.251l-1.845-.179-7.665-.743-.452-1.643A6.372,6.372,0,0,1,85.2,93.734a8.4,8.4,0,0,1,.486-6.306l.037-.073.814-.679S77.63,73.3,87.854,63.218l4.1-6.976,4.592-5.6Z"/>
            <path id="Trazado_20428" data-name="Trazado 20428" class="cls-15" d="M104.727,9.828A12.847,12.847,0,1,1,91.88,22.675,12.847,12.847,0,0,1,104.727,9.828"/>
            <path id="Trazado_20429" data-name="Trazado 20429" class="cls-13" d="M114.484,41.182a6.186,6.186,0,0,1-2.071-3.4,13.276,13.276,0,0,0,.183,4.854c-.7.523-1.371,1.02-2.009,1.47a13.662,13.662,0,0,0-1.967-3.458c-.078,1.653-.151,3.312-.225,4.964a17.961,17.961,0,0,1-2.568,1.449l.382-.455c2.741-4.038-4.352-11.471-1.611-15.5.769-1.13-2.7-10.058-5.351-10.461-2.354-.356-2.255.324-4.535.821a11.415,11.415,0,0,0-1.094-2.83,9.327,9.327,0,0,1-.088,2.982c-.811.031-1.449-.486-2.312-.618-5.508-.842-4.949-6.8-3.416-8.688s6.643-2.448,9-3.06c.214-.209.7-.078.915-.277,4.511-4.129,10.544-4.812,15.974-2.982a16.731,16.731,0,0,1,11.252,11.55l.532,4.659c.476,1.5-.123,8.469-.532,9.987-1.587,5.9-4.968,2.955-10.456,9"/>
            <path id="Trazado_20430" data-name="Trazado 20430" class="cls-15" d="M128.629,130.971l4.587-28.922-.505-39.392a6.359,6.359,0,0,0-6.358-6.258h-.008a6.141,6.141,0,0,0-4.04,1.4A6.521,6.521,0,0,0,120,63.1l1.78,40.9.034,24.9"/>
            <path id="Trazado_20431" data-name="Trazado 20431" class="cls-15" d="M64.663,72.114c-1.019-2.39-4.806-3.892-7.5-4.457a22.9,22.9,0,0,0-8.226.166,9.451,9.451,0,0,0-3.07.866,3.046,3.046,0,0,0-1.729,2.389,2.8,2.8,0,0,0,.878,2,8.583,8.583,0,0,0,3.245,1.76l9.447,3.481a4.542,4.542,0,0,0,2.949.376,3.61,3.61,0,0,0,2-2.8c.252-1.03,2.266-1.276,2.317-2.331"/>
            <path id="Trazado_20432" data-name="Trazado 20432" class="cls-15" d="M58.086,68.605q-.075-.644-.149-1.286a3.563,3.563,0,0,1-.025-.939,1.909,1.909,0,0,1,.792-1.254.575.575,0,0,1,.23-.109.535.535,0,0,1,.268.029A2.174,2.174,0,0,1,60.273,66.1c.648,1.049,2.269,3.13,2.917,4.179"/>
            <path id="Trazado_20433" data-name="Trazado 20433" class="cls-15" d="M120.9,129.34c-1.774,1.9-1.617,5.969-1.045,8.661a22.926,22.926,0,0,0,3.477,7.457,9.468,9.468,0,0,0,2.035,2.458,3.047,3.047,0,0,0,2.883.615,2.8,2.8,0,0,0,1.477-1.613,8.579,8.579,0,0,0,.3-3.68q-.318-5.023-.635-10.048a4.54,4.54,0,0,0-.849-2.849,3.61,3.61,0,0,0-3.372-.7c-1.044.186-2.083-1.557-3.069-1.177"/>
            <path id="Trazado_20434" data-name="Trazado 20434" class="cls-15" d="M120.351,136.775l-1.116.656a3.589,3.589,0,0,1-.849.4,1.909,1.909,0,0,1-1.467-.217.607.607,0,0,1-.194-.166.552.552,0,0,1-.081-.257,2.182,2.182,0,0,1,.529-1.406c.7-1.016,1.945-3.34,2.644-4.357"/>
            <path id="Trazado_20435" data-name="Trazado 20435" class="cls-17" d="M295.638,103.285A41.914,41.914,0,1,1,253.724,145.2a41.914,41.914,0,0,1,41.914-41.914"/>
            <path id="Trazado_20436" data-name="Trazado 20436" class="cls-4" d="M315.684,139.725H301.105V125.146a5.467,5.467,0,0,0-10.934,0v14.579H275.592a5.468,5.468,0,0,0,0,10.935h14.579v14.578a5.467,5.467,0,0,0,10.934.014V150.66h14.579a5.468,5.468,0,0,0,0-10.935Z"/>
          </g>
        </g>
      </g>
    </g>
  </g>
</svg>
