<svg xmlns="http://www.w3.org/2000/svg" width="400" height="220" viewBox="0 0 400 220">
    <defs>
        <clipPath id="5ixm9aukka">
            <path data-name="Rectángulo 12485" style="fill:none" d="M0 0h340.946v171.504H0z"/>
        </clipPath>
        <clipPath id="smacwncncb">
            <path data-name="Rectángulo 12479" transform="translate(46.1 141.497)" style="fill:none" d="M0 0h15.865v23.655H0z"/>
        </clipPath>
    </defs>
    <g data-name="Grupo 47655">
        <g data-name="Grupo 47642">
            <g data-name="Grupo 47641">
                <path data-name="Rectángulo 9827" style="fill:none" d="M0 0h400v220H0z"/>
            </g>
        </g>
        <g data-name="Grupo 54204">
            <g data-name="Grupo 54209" style="clip-path:url(#5ixm9aukka)" transform="translate(26 30.022)">
                <g data-name="Grupo 54208">
                    <g data-name="Grupo 54207" style="clip-path:url(#5ixm9aukka)">
                        <path data-name="Trazado 20437" d="M307.06 169.593c-.752.618-1.5 1.208-2.274 1.79h-189.91q-2.123-.873-4.225-1.79a223.632 223.632 0 0 1-55.387-34.483C44.19 125.728 34 116.042 26.617 106.965 16.313 94.3 6.824 80.493 2.408 64.764s-3.088-33.758 6.75-46.8A41.911 41.911 0 0 1 20.217 7.838a39.97 39.97 0 0 1 2.157-1.28C34.173-.067 49.06-1.679 62.345 1.75c19.023 4.915 34.833 18.638 46.112 34.734s18.6 34.564 25.818 52.835c7.323-32.613 29.5-61.823 59.451-76.675s67.15-14.673 96.459 1.414a96.946 96.946 0 0 1 24.663 19.427c.707.761 1.4 1.54 2.077 2.328 14.3 16.552 23.24 37.751 23.974 59.612.94 28.163-12.112 56.452-33.839 74.168" style="fill:#f4f4f4"/>
                        <path data-name="Trazado 20438" d="M122.468 171.383h-2.686a63.08 63.08 0 0 0-.134-1.79 200.694 200.694 0 0 0-5.873-34.681 213.81 213.81 0 0 0-34.3-72.029 204.666 204.666 0 0 0-58.63-54.124 1.273 1.273 0 0 1-.627-.922 1.339 1.339 0 0 1 1.978-1.4 1.886 1.886 0 0 1 .179.116A202.721 202.721 0 0 1 58.29 34.416a215.655 215.655 0 0 1 46.291 66.362 209.124 209.124 0 0 1 17.743 68.815c.054.6.1 1.2.143 1.79" style="fill:#fff"/>
                        <path data-name="Trazado 20439" d="M316.925 35.812a.175.175 0 0 1-.063.018c-1.961.358-3.93.734-5.882 1.137a265.725 265.725 0 0 0-46.846 14.225 276.371 276.371 0 0 0-43.418 22.38 280.868 280.868 0 0 0-38.9 29.614A275.315 275.315 0 0 0 148.7 139.1a266.3 266.3 0 0 0-20.241 30.491c-.34.591-.671 1.191-1 1.79h-3.069c.322-.6.654-1.2.994-1.79a268.484 268.484 0 0 1 25.048-37 278.25 278.25 0 0 1 34.3-35.585 284.583 284.583 0 0 1 39.727-28.9 279.1 279.1 0 0 1 44.331-21.622 266.086 266.086 0 0 1 46.059-13l1.307-.242c1.674-.3 2.39 2.22.77 2.569" style="fill:#fff"/>
                        <path data-name="Trazado 20440" d="M263.523 129.263a177.452 177.452 0 0 0-56.26 1.269 181.122 181.122 0 0 0-52.972 18.52 174.859 174.859 0 0 0-26.435 17.466c-1.35 1.078.561 2.968 1.9 1.9a173.525 173.525 0 0 1 48.152-27.068 178.722 178.722 0 0 1 53.77-10.908 171.116 171.116 0 0 1 31.133 1.413 1.392 1.392 0 0 0 1.652-.938 1.351 1.351 0 0 0-.938-1.652" style="fill:#fff"/>
                        <path data-name="Rectángulo 12469" transform="translate(57.94 17.311)" style="fill:#e6e6e6" d="M0 0h240.76v154.193H0z"/>
                        <path data-name="Rectángulo 12470" transform="translate(64.823 36.651)" style="fill:#fff" d="M0 0h226.991v125.732H0z"/>
                        <path data-name="Rectángulo 12471" transform="translate(57.836 17.175)" style="fill:#2b56e5" d="M0 0h240.76v10.229H0z"/>
                        <path data-name="Trazado 20441" d="M65.437 20.509a1.9 1.9 0 1 1-1.9 1.9 1.9 1.9 0 0 1 1.9-1.9" style="fill:#fff"/>
                        <path data-name="Trazado 20442" d="M72.636 20.509a1.9 1.9 0 1 1-1.9 1.9 1.9 1.9 0 0 1 1.9-1.9" style="fill:#fff"/>
                        <path data-name="Trazado 20443" d="M79.829 20.509a1.9 1.9 0 1 1-1.9 1.9 1.9 1.9 0 0 1 1.9-1.9" style="fill:#fff"/>
                        <path data-name="Rectángulo 12472" transform="translate(85.449 49.697)" style="fill:#2b56e5" d="M0 0h185.74v7.075H0z"/>
                        <path data-name="Rectángulo 12473" transform="translate(85.449 65.885)" style="fill:#bfccf7" d="M0 0h185.74v7.075H0z"/>
                        <path data-name="Rectángulo 12474" transform="translate(85.449 82.154)" style="fill:#bfccf7" d="M0 0h185.74v7.075H0z"/>
                        <path data-name="Rectángulo 12475" transform="translate(85.449 97.758)" style="fill:#bfccf7" d="M0 0h185.74v7.075H0z"/>
                        <path data-name="Rectángulo 12476" transform="translate(85.449 114.567)" style="fill:#bfccf7" d="M0 0h185.74v7.075H0z"/>
                        <path data-name="Rectángulo 12477" transform="translate(85.449 130.7)" style="fill:#bfccf7" d="M0 0h185.74v7.075H0z"/>
                        <path data-name="Rectángulo 12478" transform="translate(85.449 146.834)" style="fill:#bfccf7" d="M0 0h185.74v7.075H0z"/>
                        <path data-name="Trazado 20444" d="M54.6 139.88c-2.343-4.158-2.807-11.335-2.491-16.216.084-1.3.2-2.463.307-3.588.327-3.355.911-6.079.109-9.555l.1-.709a31.687 31.687 0 0 1 .458 10.329c-.109 1.12-.222 2.278-.305 3.566-.309 4.79.136 11.814 2.407 15.845z" style="fill:#7f99ef"/>
                        <path data-name="Trazado 20445" d="M53.155 118.2c-.417-6.429-5.385-12.315-5.594-13.067-4.467 4.426-4.008 11.4 5.594 13.067" style="fill:#7f99ef"/>
                        <path data-name="Trazado 20446" d="M63.3 108.977c-8.725 2.839-11.271 16.907-10.645 19.036 1.628 2.045 12.232-2.171 12.148-9.6s-1.5-9.435-1.5-9.435" style="fill:#7f99ef"/>
                        <path data-name="Trazado 20447" d="M52.2 96.746a22.275 22.275 0 0 1-.5 6.93l-.626-.292c-.417.668 1.044 6.137 1.461 7.138a29.857 29.857 0 0 0 .793-9.727c-.336-3.172-1.128-4.049-1.128-4.049" style="fill:#152b72"/>
                        <path data-name="Trazado 20448" d="M57.663 101.3c-.626 1.127-3.674 5.218-3.882 7.389a44.209 44.209 0 0 0-.381 5.211c.125.167 3.966-1.628 3.966-3.715s.709-2.421.96-4.133a14.873 14.873 0 0 0-.668-4.759" style="fill:#152b72"/>
                        <path data-name="Trazado 20449" d="M54.171 128.612a1.963 1.963 0 0 1-1.587-.547l-.015-.028c-.335-1.139.195-5.231 1.818-9.306 1.45-3.639 4.168-8.3 8.881-9.833l.058-.019.036.05c.059.083 1.435 2.11 1.518 9.482a8.858 8.858 0 0 1-2.808 6.34c-2.48 2.508-5.924 3.861-7.906 3.861m-1.442-.638a1.833 1.833 0 0 0 1.441.471c1.948 0 5.339-1.335 7.787-3.811a8.807 8.807 0 0 0 2.76-6.221c-.075-6.68-1.246-8.977-1.456-9.336-4.613 1.534-7.285 6.125-8.715 9.715-1.58 3.964-2.129 8.068-1.818 9.182" style="fill:#2244b7"/>
                        <path data-name="Trazado 20450" d="m52.7 128.08-.1-.134c4.058-3.007 9.273-9.783 10.612-18.981l.165.024a31.76 31.76 0 0 1-4.05 11.474 26.175 26.175 0 0 1-6.627 7.617" style="fill:#2244b7"/>
                        <path data-name="Trazado 20451" d="M60.982 116.9a15.8 15.8 0 0 1 1.261-7.6l.149.075a15.614 15.614 0 0 0-1.244 7.51z" style="fill:#2244b7"/>
                        <path data-name="Trazado 20452" d="M59.961 119.077c-.054-.236-1.336-5.669.081-8.4l.179-.076c-1.389 2.676-.11 8.381-.1 8.438z" style="fill:#2244b7"/>
                        <path data-name="Trazado 20453" d="M58.611 121.393c-.023-.046-2.276-4.665-1.048-8.267l.158.054c-1.206 3.537 1.017 8.094 1.039 8.139z" style="fill:#2244b7"/>
                        <path data-name="Trazado 20454" d="M57.462 123.08c-.087-.19-2.114-4.687-1.676-7.333l.165.027c-.429 2.6 1.642 7.19 1.663 7.236z" style="fill:#2244b7"/>
                        <path data-name="Trazado 20455" d="M56.287 124.585a8.012 8.012 0 0 1-1.848-5.953l.166.02a7.829 7.829 0 0 0 1.8 5.819z" style="fill:#2244b7"/>
                        <path data-name="Trazado 20456" d="M55.324 125.625a8.567 8.567 0 0 1-1.75-4.579l.167-.008a8.39 8.39 0 0 0 1.713 4.48z" style="fill:#2244b7"/>
                        <path data-name="Trazado 20457" d="M54.422 126.474c-.06-.088-1.477-2.168-1.392-3.455l.167.011c-.081 1.23 1.349 3.328 1.363 3.349z" style="fill:#2244b7"/>
                        <path data-name="Trazado 20458" d="M53.611 127.231a6.528 6.528 0 0 1-1.016-1.948l.159-.049a6.489 6.489 0 0 0 .987 1.893z" style="fill:#2244b7"/>
                        <path data-name="Trazado 20459" d="m56.88 123.961-.02-.166a12.039 12.039 0 0 0 7.831-4.973l.138.093a12.212 12.212 0 0 1-7.949 5.046" style="fill:#2244b7"/>
                        <path data-name="Trazado 20460" d="m53.245 118.3-.1-.018c-4.361-.758-7.244-2.711-8.119-5.5-.788-2.509.14-5.391 2.481-7.711l.1-.1.038.137a7.857 7.857 0 0 0 .691 1.134c1.485 2.235 4.574 6.886 4.9 11.953zm-5.709-13.019c-2.231 2.259-3.11 5.037-2.351 7.454.848 2.7 3.646 4.6 7.884 5.364-.362-4.981-3.4-9.558-4.869-11.765a11.936 11.936 0 0 1-.664-1.053" style="fill:#2244b7"/>
                        <path data-name="Trazado 20461" d="M53.109 118.272c-6.757-4.691-6.448-9.248-5.628-13.152l.163.034c-.809 3.851-1.113 8.348 5.56 12.981z" style="fill:#2244b7"/>
                        <path data-name="Trazado 20462" d="m47.529 111.188-.159-.05a16.072 16.072 0 0 0 .706-5.033l.166-.015a16.254 16.254 0 0 1-.713 5.1" style="fill:#2244b7"/>
                        <path data-name="Trazado 20463" d="m47.732 111.854-.148-.077a10.343 10.343 0 0 0 1.146-4.712l.166-.018a10.279 10.279 0 0 1-1.164 4.806" style="fill:#2244b7"/>
                        <path data-name="Trazado 20464" d="m47.952 112.36-.143-.086c.017-.028 1.694-2.831 1.492-4.287l.165-.023c.211 1.515-1.443 4.279-1.514 4.4" style="fill:#2244b7"/>
                        <path data-name="Trazado 20465" d="m48.275 113.155-.12-.116a6.654 6.654 0 0 0 1.674-4.186H50a6.828 6.828 0 0 1-1.721 4.3" style="fill:#2244b7"/>
                        <path data-name="Trazado 20466" d="m48.872 114.144-.117-.119a6.209 6.209 0 0 0 1.714-4.017h.167a6.4 6.4 0 0 1-1.765 4.137" style="fill:#2244b7"/>
                        <path data-name="Trazado 20467" d="m49.195 114.585-.124-.112c.02-.022 1.964-2.2 1.843-3.576l.166-.015c.127 1.453-1.8 3.611-1.886 3.7" style="fill:#2244b7"/>
                        <path data-name="Trazado 20468" d="m49.439 114.942-.056-.157a3.4 3.4 0 0 0 2-2.907l.166.016a3.566 3.566 0 0 1-2.115 3.049" style="fill:#2244b7"/>
                        <path data-name="Trazado 20469" d="m49.842 115.4-.082-.146c.021-.012 2.11-1.172 2.044-2.371l.167-.009c.072 1.3-2.04 2.477-2.13 2.527" style="fill:#2244b7"/>
                        <path data-name="Trazado 20470" d="m50.269 115.9-.044-.161c.018 0 1.8-.5 2-1.742l.165.026c-.221 1.346-2.045 1.856-2.121 1.877" style="fill:#2244b7"/>
                        <path data-name="Trazado 20471" d="m50.768 116.35-.042-.162c.016 0 1.646-.438 1.826-1.106l.161.043c-.2.762-1.874 1.206-1.945 1.224" style="fill:#2244b7"/>
                        <path data-name="Trazado 20472" d="m51.259 116.839-.014-.166c.014 0 1.416-.128 1.5-.777l.165.022c-.1.781-1.592.915-1.655.921" style="fill:#2244b7"/>
                        <path data-name="Trazado 20473" d="M52 117.452v-.167c.224-.006.834-.083.964-.353l.15.072c-.2.417-1.072.446-1.109.447" style="fill:#2244b7"/>
                        <path data-name="Trazado 20474" d="M47.492 111.44a3.928 3.928 0 0 1-2.708-1.06l.128-.107a3.829 3.829 0 0 0 2.58 1z" style="fill:#2244b7"/>
                        <path data-name="Trazado 20475" d="M46.917 114.012a2.573 2.573 0 0 1-1.621-.474l.1-.131c1.065.852 3.1.188 3.122.181l.053.158a5.828 5.828 0 0 1-1.658.265" style="fill:#2244b7"/>
                        <path data-name="Trazado 20476" d="M53.169 133.817c.445-3.34-2.227-6.791-3.674-9.963a10.411 10.411 0 0 0-4.007-4.565 48.392 48.392 0 0 0 .056 9.407c.557 3.674 5.51 6.679 7.626 5.121" style="fill:#7f99ef"/>
                        <path data-name="Trazado 20477" d="M54.56 138.436c-.723-4.564 3.228-8.85 3.284-9.017 1.058 1.225 1.225 4.9-.612 6.178a9.17 9.17 0 0 0-2.672 2.839" style="fill:#7f99ef"/>
                        <path data-name="Trazado 20478" d="M55.284 169.383h-2.5A6.679 6.679 0 0 1 46.1 162.7v-21.2h15.861v21.2a6.679 6.679 0 0 1-6.679 6.679" style="fill:#4066e7"/>
                        <g data-name="Grupo 54206" style="mix-blend-mode:multiply;isolation:isolate">
                            <g data-name="Grupo 54205">
                                <g data-name="Grupo 54204" style="clip-path:url(#smacwncncb)">
                                    <path data-name="Trazado 20479" d="m46.1 143.144 15.4 22.008a6.653 6.653 0 0 0 .465-2.447V141.5H46.56l-.457.111z" style="fill:#ebebeb"/>
                                </g>
                            </g>
                        </g>
                        <path data-name="Trazado 20480" d="M64.384 142.834H43.762a3.507 3.507 0 0 1 3.5-3.511h13.616a3.507 3.507 0 0 1 3.507 3.507" style="fill:#2244b7"/>
                        <path data-name="Rectángulo 12480" transform="translate(120.675 56.772)" style="fill:#bfccf7" d="M0 0h1.792v97.137H0z"/>
                        <path data-name="Rectángulo 12481" transform="translate(159.646 56.772)" style="fill:#bfccf7" d="M0 0h1.792v97.137H0z"/>
                        <path data-name="Rectángulo 12482" transform="translate(198.617 56.772)" style="fill:#bfccf7" d="M0 0h1.792v97.137H0z"/>
                        <path data-name="Rectángulo 12483" transform="translate(241.158 56.772)" style="fill:#bfccf7" d="M0 0h1.792v97.137H0z"/>
                    </g>
                </g>
            </g>
        </g>
    </g>
</svg>
